<svg xmlns="http://www.w3.org/2000/svg" width="64" height="65" viewBox="0 0 64 65">
    <path fill="#008999" fill-rule="evenodd" d="M57.161 13.489l-6.505-.044.007-5.04a1.11 1.11 0 0 0-.181-.61L45.696.5a1.107 1.107 0 0 0-1.853 0l-4.786 7.295a1.11 1.11 0 0 0-.181.61l-.012 4.962-5.617-.037V2.002A1.11 1.11 0 0 0 32.173.858H21.368a1.169 1.169 0 0 0-1.143 1.144v8.422c0 .087-.035.177-.035.27 0 .094.035.184.035.27v2.28l-5.818-.039V4.641a1.203 1.203 0 0 0-1.173-1.15H9.297a9.231 9.231 0 0 0-6.582 2.724 9.448 9.448 0 0 0-2.71 6.141H0v30.2h.015a6.689 6.689 0 0 0-.015.508v.016a9.299 9.299 0 0 0 9.298 9.31h39.464V63.5a1.05 1.05 0 0 0 1.064 1.081h6.988A7.176 7.176 0 0 0 64 57.401v-36.99c0-3.817-3.07-6.922-6.839-6.922zm-8.74 18.815h-7.302l-.025-22.857h7.352l-.026 22.857zm-.003 2.217l-.002 2.187a3.646 3.646 0 0 1-7.293-.001l-.002-2.186h7.297zM44.769 3.064l2.734 4.167h-5.467l2.733-4.167zm-13.739.01v36.988h-8.588v-6.096h1.108a1.108 1.108 0 0 0 0-2.216h-1.108v-3.325h1.108a1.108 1.108 0 0 0 0-2.216h-1.108v-3.325h1.108a1.108 1.108 0 0 0 0-2.216h-1.108v-3.325h1.108a1.108 1.108 0 0 0 0-2.216h-1.108v-3.325h1.108a1.108 1.108 0 0 0 0-2.217h-1.108v-6.51h8.588zM2.216 12.853a7.127 7.127 0 0 1 7.082-7.145h2.892v28.12H9.306c-2.84 0-5.427 1.214-7.09 3.225v-24.2zM9.3 50.174a7.081 7.081 0 0 1-7.083-7.092v-.017a7.04 7.04 0 0 1 7.091-7.02h3.927a1.223 1.223 0 0 0 1.173-1.175V15.42l5.818.04v.504c0 .086-.035.177-.035.27 0 .094.035.184.035.27v5.001c0 .087-.035.177-.035.271 0 .094.035.183.035.27v5.001c0 .087-.035.177-.035.27 0 .094.035.184.035.271v5c0 .087-.035.178-.035.271 0 .094.035.184.035.27v8.077a1.11 1.11 0 0 0 1.143 1.072h10.805a1.05 1.05 0 0 0 1.074-1.073V15.547l5.62.037.032 21.13a5.866 5.866 0 1 0 11.73 0l.025-21.052 6.5.043c2.553 0 4.63 2.11 4.63 4.705v31.785a7.082 7.082 0 0 0-4.98-2.02H9.3zm52.49 7.214a4.97 4.97 0 0 1-4.976 4.977h-5.835V52.39h5.825a4.992 4.992 0 0 1 4.98 4.987h.046l-.04.01z"/>
</svg>
