<svg xmlns="http://www.w3.org/2000/svg" width="19" height="24" viewBox="0 0 19 24">
    <path fill="#008999" fill-rule="evenodd" d="M15.284 22.753h-4.953C12.644 20.947 19 15.462 19 9.742 19 4.362 14.747 0 9.5 0S0 4.362 0 9.742c0 5.548 6.402 11.174 8.693 13.011H3.716a.616.616 0 0 0-.608.623c0 .345.272.624.608.624h11.568c.336 0 .608-.28.608-.624a.616.616 0 0 0-.608-.623zM5.258 9.561c0-2.402 1.899-4.35 4.242-4.35s4.242 1.948 4.242 4.35c0 2.403-1.899 4.35-4.242 4.35s-4.242-1.947-4.242-4.35z"/>
</svg>
