<svg xmlns="http://www.w3.org/2000/svg" width="140" height="143" viewBox="0 0 140 143">
    <g fill="#008999" fill-rule="evenodd">
        <path d="M7.151 137.964c0 .849-.261 1.546-.814 2.03-.552.485-1.308.758-2.296.818v1.94h-.93v-1.94c-.989-.06-1.745-.333-2.297-.818-.523-.484-.814-1.151-.814-2.03 0-.848.29-1.515.814-1.97.523-.484 1.308-.757 2.296-.818v-2.12h.93v2.12c.99.061 1.745.334 2.297.819.553.484.814 1.151.814 1.97zm-6.192 0c0 .606.175 1.06.524 1.394.377.333.9.515 1.627.576v-3.879c-.726.06-1.25.243-1.627.576-.35.333-.524.788-.524 1.333zm3.082 1.97c1.453-.121 2.18-.758 2.18-1.97 0-.576-.204-1.03-.552-1.333-.378-.333-.902-.515-1.628-.576v3.879zm6.308-4.758c.727 0 1.279.213 1.657.576.407.364.581.94.581 1.667v3.303h-.901v-.728c-.145.273-.378.455-.669.606-.29.122-.64.182-1.046.182-.61 0-1.076-.121-1.424-.424-.35-.303-.524-.697-.524-1.182s.146-.879.494-1.151c.35-.303.873-.455 1.6-.455h1.51v-.182c0-.454-.115-.757-.348-1-.232-.212-.581-.333-1.046-.333-.32 0-.61.06-.93.152-.291.12-.524.242-.756.424l-.378-.727c.261-.243.581-.424.959-.546a3.976 3.976 0 0 1 1.22-.182zm-.233 4.849c.378 0 .698-.091.96-.243.261-.182.436-.424.552-.727v-.758h-1.454c-.814 0-1.22.273-1.22.849a.76.76 0 0 0 .32.636c.203.182.493.243.842.243zm6.89-4.606c.494 0 .93.121 1.308.364.378.212.698.545.901.939.204.394.32.848.32 1.394 0 .515-.116 1-.349 1.394a2.51 2.51 0 0 1-.96.97 3.015 3.015 0 0 1-1.424.332c-.872 0-1.57-.303-2.064-.939-.494-.666-.726-1.545-.726-2.727 0-1.121.232-2 .668-2.636.436-.636 1.105-1.06 2.035-1.273l2.413-.545.145.909-2.238.485c-.669.151-1.192.424-1.54.818-.32.363-.524.909-.582 1.636.232-.364.523-.636.872-.818a2.44 2.44 0 0 1 1.22-.303zm-.175 4.575c.35 0 .64-.09.902-.242.261-.152.465-.394.61-.667.145-.272.233-.606.233-.939 0-.545-.175-1-.495-1.333-.32-.334-.726-.485-1.25-.485-.523 0-.93.151-1.25.485-.32.333-.494.788-.494 1.333 0 .333.087.667.233.94.145.272.349.514.61.666.262.151.582.242.901.242zm6.86-4.818a2.59 2.59 0 0 1 2.326 1.364c.233.394.35.91.35 1.454 0 .546-.117 1.03-.35 1.455a2.59 2.59 0 0 1-.959 1c-.407.242-.843.333-1.366.333-.378 0-.727-.06-1.047-.212a1.889 1.889 0 0 1-.785-.667v2.849h-.959v-7.515h.901v.879c.233-.303.495-.546.814-.697.32-.152.698-.243 1.076-.243zm-.086 4.758c.348 0 .64-.091.93-.243.262-.181.465-.394.64-.697a2.325 2.325 0 0 0 0-2.03c-.175-.272-.378-.515-.64-.666a1.94 1.94 0 0 0-.93-.243c-.32 0-.61.091-.902.243a2.066 2.066 0 0 0-.639.697 2.102 2.102 0 0 0-.233 1c0 .363.088.696.233 1 .174.302.378.515.64.696.29.152.58.243.9.243zm4.128-4.697h.959v4l3.227-4h.872v5.485h-.96v-4l-3.226 4h-.872v-5.485zm8.953 3.182H35.61v2.303h-.959v-5.485h.96v2.333h1.104l1.715-2.333h1.018l-2.006 2.636 2.151 2.849h-1.134l-1.773-2.303zm5.669-3.243c.755 0 1.308.213 1.686.576.378.364.581.94.581 1.667v3.303h-.901v-.728a1.648 1.648 0 0 1-.669.606c-.32.122-.668.182-1.075.182-.582 0-1.047-.121-1.396-.424a1.517 1.517 0 0 1-.552-1.182c0-.485.174-.879.523-1.151.32-.303.872-.455 1.6-.455h1.51v-.182c0-.454-.115-.757-.348-1-.233-.212-.581-.333-1.047-.333-.32 0-.64.06-.93.152-.29.12-.552.242-.756.424l-.378-.727c.262-.243.582-.424.96-.546a3.924 3.924 0 0 1 1.192-.182zm-.204 4.849c.349 0 .669-.091.93-.243.291-.182.466-.424.582-.727v-.758h-1.454c-.814 0-1.22.273-1.22.849 0 .273.087.485.32.636.203.182.464.243.842.243zm12.239-.152v2.121h-.902v-1.272H49.07v1.272h-.901v-2.12h.29c.32-.031.553-.274.698-.758.116-.485.203-1.152.262-2.03l.058-1.849h4.099v4.636h.814zm-4.1-2.697a11.63 11.63 0 0 1-.174 1.697c-.087.455-.232.788-.436 1h2.936v-3.757H50.32l-.03 1.06zm10.088.849v.303h-4.302c.087.485.29.879.64 1.151.319.303.755.455 1.278.455.64 0 1.134-.243 1.512-.667l.552.636a2.444 2.444 0 0 1-.901.667c-.349.152-.756.212-1.192.212-.552 0-1.046-.09-1.482-.333a2.469 2.469 0 0 1-.989-1c-.232-.424-.349-.91-.349-1.455s.117-1.03.32-1.454a2.59 2.59 0 0 1 2.326-1.364c.494 0 .93.122 1.337.364.407.243.698.576.93 1 .204.424.32.94.32 1.485zm-2.587-2c-.465 0-.843.151-1.163.424-.29.303-.494.697-.552 1.152h3.4c-.057-.455-.232-.849-.552-1.122-.29-.303-.697-.454-1.133-.454zm7.79.09h-1.947v4.607h-.93v-4.606h-1.948v-.879h4.825v.879zm3.024 4.667c-.524 0-.989-.121-1.425-.333a2.542 2.542 0 0 1-.988-1.03 2.858 2.858 0 0 1-.349-1.425c0-.545.116-1.03.349-1.454.232-.424.581-.757.988-1a2.857 2.857 0 0 1 1.425-.364c.494 0 .93.122 1.279.304.378.212.668.515.872.878l-.727.485a1.27 1.27 0 0 0-.61-.576c-.233-.151-.524-.212-.814-.212-.35 0-.64.091-.93.243a1.726 1.726 0 0 0-.64.666 2.325 2.325 0 0 0-.233 1.03c0 .394.088.728.233 1 .145.303.378.546.64.697.29.152.58.243.93.243.29 0 .581-.06.814-.212.261-.122.465-.334.61-.576l.727.454c-.204.394-.494.697-.872.88-.35.211-.785.302-1.28.302zm5.436-2.363h-1.076v2.303h-.96v-5.485h.96v2.333h1.105l1.715-2.333h1.017l-2.005 2.636 2.15 2.849h-1.133l-1.773-2.303zm3.895-3.182h.96v4l3.226-4h.872v5.485h-.96v-4l-3.226 4h-.872v-5.485zm10.204 5.485l-1.512-2.091-1.54 2.09h-1.076l2.064-2.787-1.977-2.697h1.075l1.454 1.97 1.453-1.97H89.1l-1.977 2.697 2.093 2.788H88.14zm6.802-2.303h-1.076v2.303h-.959v-5.485h.96v2.333h1.104l1.715-2.333h1.017l-2.005 2.636 2.15 2.849h-1.133l-1.773-2.303zm6.686-3.243c.523 0 .988.122 1.395.364.407.243.698.576.93 1 .233.394.35.91.35 1.454 0 .546-.117 1.03-.35 1.455-.232.424-.523.757-.93 1-.407.242-.872.333-1.395.333-.378 0-.698-.06-1.018-.212a2.17 2.17 0 0 1-.813-.667v2.849h-.96v-7.515h.93v.879c.204-.303.466-.546.814-.697.32-.152.669-.243 1.047-.243zm-.058 4.758c.32 0 .64-.091.9-.243.263-.181.495-.394.64-.697a2.325 2.325 0 0 0 0-2.03 1.726 1.726 0 0 0-.64-.666 1.828 1.828 0 0 0-.9-.243c-.35 0-.64.091-.901.243-.262.181-.495.394-.64.697a2.102 2.102 0 0 0-.232 1c0 .363.058.696.232 1 .145.302.349.515.64.696.261.152.552.243.9.243zm6.366.848a2.98 2.98 0 0 1-1.395-.333 2.368 2.368 0 0 1-.989-1.03 2.858 2.858 0 0 1-.349-1.425c0-.545.117-1.03.35-1.454.232-.424.552-.757.988-1a2.674 2.674 0 0 1 1.395-.364c.523 0 .988.122 1.424.364.407.243.727.576.96 1 .232.424.349.91.349 1.454 0 .546-.117 1-.35 1.425a2.477 2.477 0 0 1-.959 1.03 3.192 3.192 0 0 1-1.424.333zm0-.848c.349 0 .64-.091.93-.243.262-.181.465-.394.61-.697.175-.303.233-.636.233-1 0-.393-.058-.727-.232-1.03a1.656 1.656 0 0 0-.61-.666 1.94 1.94 0 0 0-.931-.243c-.32 0-.64.091-.901.243a1.726 1.726 0 0 0-.64.666 2.325 2.325 0 0 0 0 2.03c.146.303.378.516.64.697.262.152.581.243.901.243zm7.704-2.06c.697.181 1.046.636 1.046 1.333 0 .484-.174.878-.523 1.12-.349.273-.872.395-1.57.395h-2.529v-5.485h2.442c.64 0 1.104.121 1.453.364.35.242.524.606.524 1.06 0 .273-.059.515-.204.727a1.197 1.197 0 0 1-.64.485zm-2.646-.273h1.425c.378 0 .64-.061.843-.213.174-.12.29-.333.29-.606 0-.515-.378-.787-1.133-.787h-1.425v1.606zm1.54 2.363c.379 0 .699-.06.902-.182a.774.774 0 0 0 .29-.636c0-.273-.086-.485-.29-.606-.174-.152-.465-.212-.843-.212h-1.599v1.636h1.54zm5.524-4.788c.727 0 1.28.213 1.657.576.407.364.582.94.582 1.667v3.303h-.902v-.728c-.145.273-.378.455-.668.606-.291.122-.64.182-1.047.182-.61 0-1.075-.121-1.424-.424s-.523-.697-.523-1.182.145-.879.494-1.151c.349-.303.872-.455 1.599-.455h1.511v-.182c0-.454-.116-.757-.349-1-.232-.212-.581-.333-1.046-.333-.32 0-.61.06-.93.152-.291.12-.553.242-.756.424l-.378-.727c.262-.243.581-.424.96-.546a3.976 3.976 0 0 1 1.22-.182zm-.232 4.849c.377 0 .668-.091.959-.243.262-.182.436-.424.552-.727v-.758h-1.453c-.814 0-1.221.273-1.221.849a.76.76 0 0 0 .32.636c.203.182.494.243.843.243zm8.14-3.91h-1.949v4.607h-.959v-4.606h-1.918v-.879h4.825v.879zm2.993 4.667c-.523 0-.988-.121-1.424-.333a2.477 2.477 0 0 1-.96-1.03c-.261-.425-.377-.88-.377-1.425s.116-1.03.378-1.454a2.59 2.59 0 0 1 .959-1 2.857 2.857 0 0 1 1.424-.364c.524 0 .989.122 1.396.364.407.243.755.576.988 1 .233.424.349.91.349 1.454 0 .546-.116 1-.349 1.425a2.542 2.542 0 0 1-.988 1.03 2.98 2.98 0 0 1-1.396.333zm0-.848c.32 0 .64-.091.901-.243.262-.181.495-.394.64-.697a2.325 2.325 0 0 0 0-2.03 1.726 1.726 0 0 0-.64-.666 1.828 1.828 0 0 0-.9-.243c-.35 0-.64.091-.902.243-.29.151-.494.394-.64.666-.174.303-.232.637-.232 1.03 0 .364.058.697.233 1 .145.303.348.516.64.697.26.152.551.243.9.243zm6.163-1.515h-1.105v2.303h-.959v-5.485h.96v2.333h1.133l1.686-2.333h1.047l-2.006 2.636 2.122 2.849h-1.105l-1.773-2.303zM12.873 98.32h1.223l7.398 21.127c.553 1.578 1.165 2.87 1.805 3.875.641 1.004 1.457 1.521 2.389 1.55v.976h-7.573v-.976h.495c.262 0 .379-.23.379-.69 0-.143-.03-.286-.087-.458l-2.505-7.176H7.28c-.99 2.669-1.485 4.65-1.485 5.97 0 .689.233 1.263.67 1.694.466.459 1.077.66 1.805.66h1.107v.976H0v-.976c1.544-.086 3-1.723 4.281-4.937l8.592-21.614zm-.757 6l-4.369 10.936h8.213l-3.844-10.936zm17.008-4.937h6.874l8.97 21.872 5.126-11.998c1.95-4.535 3.232-7.808 3.844-9.874h7.485v.976c-1.223.028-2.068.23-2.534.602-.495.373-.728 1.062-.728 2.067 0 .144 0 .287.03.488l1.601 16.505c.204 2.038.524 3.33.961 3.932.466.574 1.398.89 2.767.919v.976H53.18v-.976c1.078-.029 1.806-.23 2.243-.603.437-.402.641-1.148.641-2.268 0-.23 0-.459-.03-.717l-1.63-16.505c-2.417 4.248-4.136 7.52-5.126 9.874l-5.271 12.17h-.932l-9.844-24.082-.7 7.434c-.32 3.359-.494 6.028-.494 7.98 0 4.363 1.106 6.602 3.32 6.717v.976H25.89v-.976c.99-.201 1.748-.833 2.33-1.837.554-1.034 1.165-2.842 1.777-5.454.612-2.583 1.048-5.368 1.31-8.324l.525-5.511c.029-.259.029-.546.029-.862 0-.975-.175-1.636-.583-1.98-.378-.316-1.106-.517-2.155-.545v-.976zM76.83 98.32h1.252l7.398 21.126c.553 1.578 1.135 2.87 1.805 3.875.64 1.004 1.427 1.521 2.36 1.55v.976h-7.573v-.976h.524c.262 0 .379-.23.379-.69 0-.143-.03-.286-.088-.458l-2.504-7.176h-9.145c-.961 2.669-1.456 4.65-1.456 5.97 0 .689.233 1.263.67 1.694.465.459 1.048.66 1.805.66h1.107v.976h-9.407v-.976c1.572-.086 3-1.723 4.281-4.937L76.83 98.32zm-.758 5.999l-4.34 10.936h8.185l-3.845-10.936zm15.058-4.937h10.222v.976c-1.281.028-2.126.258-2.534.717-.436.43-.67 1.292-.67 2.583v21.213h2.738c4.252 0 6.786-2.182 7.572-6.545h1.515l-1.806 8.497h-.932c-.029-.66-.32-.976-.903-.976H91.13v-.976c1.223 0 2.067-.259 2.504-.718.437-.46.67-1.32.67-2.583v-17.912c0-1.32-.233-2.21-.728-2.64-.466-.402-1.281-.632-2.446-.66v-.976zm36.463-.89h.932v7.836h-1.456c0-2.153-.612-3.674-1.835-4.593-1.223-.918-3.029-1.377-5.417-1.377h-1.602a42.127 42.127 0 0 0-.204 4.047c0 2.64.437 4.535 1.37 5.683.902 1.148 2.504 1.694 4.805 1.694h1.718v1.464l-7.689.143v8.18c0 2.125 1.049 3.216 3.175 3.302v.976h-10.223v-.976c1.252 0 2.097-.259 2.534-.718.437-.46.64-1.32.64-2.583v-17.94c0-1.32-.232-2.21-.698-2.612-.496-.402-1.311-.632-2.476-.66v-.976h15.814c.117 0 .233-.086.35-.259.146-.172.233-.402.262-.631zM140 100.359c-1.252.028-2.097.287-2.534.717-.437.46-.64 1.32-.64 2.583v17.912c0 2.124 1.048 3.215 3.174 3.3v.977h-10.223v-.976c1.253 0 2.097-.259 2.534-.718.437-.46.64-1.32.64-2.583v-17.912c0-1.349-.232-2.21-.698-2.64-.495-.402-1.31-.632-2.476-.66v-.976H140v.976z"/>
        <g transform="translate(35.21 .237)">
            <path d="M1.593 0h66.395c.435 0 .84.175 1.13.437.26.262.463.64.463 1.048V81.48c0 .437-.203.815-.463 1.077-.29.262-.695.437-1.13.437H1.593c-.435 0-.84-.175-1.13-.437A1.43 1.43 0 0 1 0 81.48V1.485C0 1.077.174.7.463.437.753.175 1.158 0 1.593 0zm65.585 2.271H2.403v78.452h64.775V2.27z"/>
            <path d="M29.767 35.44a6.715 6.715 0 0 0 9.469 0 6.715 6.715 0 0 0 1.968-4.776c0-1.805-.695-3.494-1.969-4.747-.782-.786-1.766-1.397-2.838-1.689a1.101 1.101 0 0 0-1.1.263 1.13 1.13 0 0 0-.29 1.106c.464 1.602.058 3.29-1.1 4.456a4.464 4.464 0 0 1-4.43 1.135c-.405-.116-.81 0-1.1.291-.29.292-.406.7-.29 1.107a6.967 6.967 0 0 0 1.68 2.854zm5.704-3.786a6.721 6.721 0 0 0 1.94-4.368c.087.058.174.146.26.204a4.485 4.485 0 0 1 1.304 3.174c0 1.194-.464 2.33-1.303 3.174-.87.845-1.97 1.31-3.157 1.31a4.385 4.385 0 0 1-3.156-1.31c-.087-.087-.174-.145-.231-.233 1.621-.087 3.156-.786 4.343-1.95zM34.313 11.415c.29 0 .579-.116.781-.32.232-.233.348-.524.348-.815 0-.292-.116-.583-.348-.787a1.031 1.031 0 0 0-.781-.35 1.14 1.14 0 0 0-1.13 1.137c0 .29.116.582.319.815.232.204.521.32.81.32zM19.4 22.277c.29 0 .58-.145.782-.35.203-.203.348-.494.348-.785 0-.32-.145-.612-.348-.816a1.115 1.115 0 0 0-.782-.32c-.29 0-.608.116-.81.32a1.147 1.147 0 0 0-.319.816c0 .29.116.582.319.786.202.204.52.35.81.35zM52.092 21.899c.318 0 .608-.117.81-.32.203-.204.319-.496.319-.816 0-.291-.116-.582-.319-.786a1.158 1.158 0 0 0-.81-.35c-.29 0-.58.146-.782.35a1.128 1.128 0 0 0-.319.786c0 .32.116.612.319.815.202.204.492.32.782.32zM10.598 9.435c.29 0 .579-.116.782-.32.202-.233.318-.524.318-.816 0-.29-.116-.582-.318-.786a1.031 1.031 0 0 0-.782-.35c-.319 0-.608.117-.81.35a1.128 1.128 0 0 0-.32.786c0 .292.116.583.32.816.202.204.491.32.81.32z"/>
            <rect width="2.134" height="31.82" x="54.669" y="28.509" rx="1.067"/>
            <path d="M54.556 29.28l.877-.881a.449.449 0 0 1 .636 0l5.962 5.996a.449.449 0 0 1 0 .633l-.876.881a.449.449 0 0 1-.636 0l-5.963-5.996a.449.449 0 0 1 0-.633z"/>
            <path d="M56.928 29.28l-.877-.881a.449.449 0 0 0-.636 0l-5.962 5.996a.449.449 0 0 0 0 .633l.876.881a.449.449 0 0 0 .637 0l5.962-5.996a.449.449 0 0 0 0-.633zM54.556 36.967l.877-.881a.449.449 0 0 1 .636 0l5.962 5.996a.449.449 0 0 1 0 .633l-.876.881a.449.449 0 0 1-.636 0L54.556 37.6a.449.449 0 0 1 0-.633z"/>
            <path d="M56.928 36.967l-.877-.881a.449.449 0 0 0-.636 0l-5.962 5.996a.449.449 0 0 0 0 .633l.876.881a.449.449 0 0 0 .637 0l5.962-5.996a.449.449 0 0 0 0-.633zM54.556 44.276l.877-.882a.449.449 0 0 1 .636 0l5.962 5.996a.449.449 0 0 1 0 .633l-.876.882a.449.449 0 0 1-.636 0l-5.963-5.997a.449.449 0 0 1 0-.632z"/>
            <path d="M56.928 44.276l-.877-.882a.449.449 0 0 0-.636 0l-5.962 5.996a.449.449 0 0 0 0 .633l.876.882a.449.449 0 0 0 .637 0l5.962-5.997a.449.449 0 0 0 0-.632zM19.54 55.392v-1.25c0-.247.2-.448.449-.448h25.716c.248 0 .45.201.45.449v1.249c0 .248-.202.449-.45.449H19.99a.449.449 0 0 1-.449-.45z"/>
            <rect width="2.134" height="9.311" x="19.545" y="53.699" rx="1.067"/>
            <rect width="2.134" height="10.802" x="44.013" y="53.699" rx="1.067"/>
            <rect width="2.134" height="12.464" x="30.027" y="53.699" rx="1.067"/>
            <path d="M31.91 56.088l.876-.882a.449.449 0 0 0 0-.633l-5.764-5.796a.449.449 0 0 0-.637 0l-.876.88a.449.449 0 0 0 0 .634l5.764 5.797a.449.449 0 0 0 .636 0z"/>
            <path d="M20.29 55.928l-.876-.882a.449.449 0 0 1 0-.632l5.764-5.797a.449.449 0 0 1 .636 0l.877.881a.449.449 0 0 1 0 .633l-5.764 5.797a.449.449 0 0 1-.637 0zM45.406 55.928l.877-.882a.449.449 0 0 0 0-.632l-5.764-5.797a.449.449 0 0 0-.637 0l-.876.881a.449.449 0 0 0 0 .633l5.764 5.797a.449.449 0 0 0 .636 0z"/>
            <path d="M24.476 50.44V49.19c0-.248.2-.449.449-.449h15.84c.247 0 .448.201.448.449v1.249c0 .248-.2.449-.449.449h-15.84a.449.449 0 0 1-.448-.45zM50.267 81.858c-3.59-4.63-10.8-10.687-21.05-14.91-7.616-3.145-16.853-5.27-27.509-5.096l-.029-2.3c11.004-.204 20.56 1.98 28.406 5.242C40.741 69.19 48.298 75.539 52.092 80.43l-1.825 1.427z"/>
            <path d="M34.66 66.949c4.517-2.796 9.7-4.805 14.825-6.261 7.008-2.01 13.928-2.97 18.764-3.35l.203 2.33c-4.75.379-11.496 1.282-18.358 3.233-4.923 1.427-9.932 3.378-14.247 6.028l-1.187-1.98z"/>
            <rect width="2.134" height="32.15" x="10.627" y="29.79" rx="1.067"/>
            <path d="M10.518 30.54l.877-.882a.449.449 0 0 1 .636 0l5.962 5.996a.449.449 0 0 1 0 .633l-.876.882a.449.449 0 0 1-.636 0l-5.963-5.997a.449.449 0 0 1 0-.632z"/>
            <path d="M12.89 30.54l-.877-.882a.449.449 0 0 0-.636 0l-5.962 5.996a.449.449 0 0 0 0 .633l.876.882a.449.449 0 0 0 .637 0l5.962-5.997a.449.449 0 0 0 0-.632zM10.518 38.227l.877-.882a.449.449 0 0 1 .636 0l5.962 5.996a.449.449 0 0 1 0 .633l-.876.882a.449.449 0 0 1-.636 0l-5.963-5.997a.449.449 0 0 1 0-.632z"/>
            <path d="M12.89 38.227l-.877-.882a.449.449 0 0 0-.636 0l-5.962 5.996a.449.449 0 0 0 0 .633l.876.882a.449.449 0 0 0 .637 0l5.962-5.997a.449.449 0 0 0 0-.632zM10.518 45.535l.877-.881a.449.449 0 0 1 .636 0l5.962 5.996a.449.449 0 0 1 0 .633l-.876.881a.449.449 0 0 1-.636 0l-5.963-5.996a.449.449 0 0 1 0-.633z"/>
            <path d="M12.89 45.535l-.877-.881a.449.449 0 0 0-.636 0L5.415 50.65a.449.449 0 0 0 0 .633l.876.881a.449.449 0 0 0 .637 0l5.962-5.996a.449.449 0 0 0 0-.633zM56.406 9.814c.29 0 .58-.117.782-.32.202-.204.318-.496.318-.816 0-.291-.116-.582-.318-.786-.203-.204-.493-.35-.782-.35-.319 0-.608.146-.81.35a1.128 1.128 0 0 0-.32.786c0 .32.116.612.32.815.202.204.491.32.81.32z"/>
        </g>
    </g>
</svg>
