<svg xmlns="http://www.w3.org/2000/svg" width="143" height="143" viewBox="0 0 143 143">
    <g fill="none" fill-rule="evenodd">
        <circle cx="71.5" cy="71.5" r="71.5" fill="#FFF0E1"/>
        <path fill="#008999" d="M72 32c22.133 0 40 17.867 40 40s-17.867 40-40 40-40-17.867-40-40 17.867-40 40-40zm0 76.444c20.089 0 36.444-16.355 36.444-36.444 0-20.089-16.355-36.444-36.444-36.444-20.089 0-36.444 16.355-36.444 36.444 0 20.089 16.355 36.444 36.444 36.444zm.356-36.088l17.066-17.067a1.76 1.76 0 0 1 2.49 0c.687.688.688 1.802.002 2.491L72.356 77.422l-12.511-12.51a1.823 1.823 0 0 1-.001-2.578 1.76 1.76 0 0 1 2.49 0l10.022 10.022z"/>
    </g>
</svg>
