<svg xmlns="http://www.w3.org/2000/svg" width="64" height="64" viewBox="0 0 64 64">
    <g fill="none" fill-rule="evenodd">
        <path fill="#0D8E9C" fill-rule="nonzero" d="M24 33.478L4 46v-2.724l16.563-10.324L4 22.724V20l20 12.426zM26.532 24.632l5.376-4.16H33.7V43h-2.56V24.152l-3.264 2.56-1.344-2.08zM38.3 31.8c0-6.72 2.208-11.456 7.264-11.456s7.264 4.736 7.264 11.456c0 6.752-2.144 11.456-7.2 11.456S38.3 38.552 38.3 31.8zm2.72 0c0 5.76 1.44 9.056 4.608 9.056 3.264 0 4.48-3.264 4.48-9.056s-1.28-9.056-4.544-9.056c-3.264 0-4.544 3.328-4.544 9.056z"/>
        <circle cx="32" cy="32" r="31" stroke="#008999" stroke-width="2"/>
    </g>
</svg>
