<svg xmlns="http://www.w3.org/2000/svg" width="26" height="26" viewBox="0 0 26 26">
    <path fill="#009FB2" fill-rule="evenodd" d="M25.317 4.48c.321.824.542 1.769.603 3.155.07 1.387.08 1.829.08 5.365 0 3.536-.02 3.978-.08 5.365-.06 1.376-.282 2.33-.603 3.154a6.354 6.354 0 0 1-1.497 2.3 6.354 6.354 0 0 1-2.3 1.498c-.824.321-1.769.542-3.155.603-1.387.07-1.829.08-5.365.08-3.536 0-3.978-.02-5.365-.08-1.376-.06-2.33-.282-3.154-.603a6.354 6.354 0 0 1-2.3-1.497 6.354 6.354 0 0 1-1.498-2.3C.362 20.695.141 19.75.08 18.364.01 16.978 0 16.536 0 13c0-3.536.02-3.978.08-5.365.06-1.376.282-2.33.603-3.154a6.354 6.354 0 0 1 1.497-2.3A6.354 6.354 0 0 1 4.48.682C5.305.362 6.25.141 7.636.08 9.022.01 9.464 0 13 0c3.536 0 3.978.02 5.365.08 1.376.06 2.33.282 3.154.603a6.354 6.354 0 0 1 2.3 1.497 6.354 6.354 0 0 1 1.498 2.3zm-1.738 13.774c.06-1.366.08-1.788.08-5.254 0-3.466-.02-3.878-.08-5.254-.06-1.266-.271-1.95-.452-2.411a4.07 4.07 0 0 0-.975-1.497 4.027 4.027 0 0 0-1.497-.975c-.452-.18-1.145-.392-2.41-.452-1.367-.07-1.789-.08-5.255-.08s-3.878.02-5.254.08c-1.266.06-1.95.271-2.411.452a4.07 4.07 0 0 0-1.497.975 4.026 4.026 0 0 0-.975 1.497c-.18.452-.392 1.145-.452 2.41-.07 1.367-.08 1.789-.08 5.255s.02 3.878.08 5.254c.06 1.266.271 1.95.452 2.411a4.07 4.07 0 0 0 .975 1.497c.452.452.894.744 1.497.975.452.18 1.145.392 2.41.452 1.367.07 1.779.08 5.255.08s3.878-.02 5.254-.08c1.266-.06 1.95-.271 2.411-.452a4.07 4.07 0 0 0 1.497-.975c.452-.452.744-.894.975-1.497.18-.452.392-1.145.452-2.41zM12.989 6.32A6.684 6.684 0 0 1 19.672 13a6.684 6.684 0 0 1-6.681 6.68A6.684 6.684 0 0 1 6.31 13a6.684 6.684 0 0 1 6.68-6.68zm0 11.021A4.348 4.348 0 0 0 17.33 13a4.341 4.341 0 1 0-4.34 4.34zm6.943-9.725a1.557 1.557 0 1 1 0-3.114 1.557 1.557 0 0 1 0 3.114z"/>
</svg>
