<svg width="24px" height="22px" viewBox="0 0 24 22" version="1.1" xmlns="http://www.w3.org/2000/svg" xmlns:xlink="http://www.w3.org/1999/xlink">
    <g id="Page-1" stroke="none" stroke-width="1" fill="none" fill-rule="evenodd">
        <g id="amalfi-design-23" transform="translate(-860.000000, -7669.000000)" fill="#008999">
            <g id="контакты" transform="translate(50.000000, 7194.000000)">
                <path d="M832.782253,490.662186 C832.191811,490.37035 829.288618,488.960043 828.747387,488.765295 C828.206156,488.570738 827.812464,488.473459 827.418868,489.057132 C827.025272,489.640711 825.893598,490.954118 825.549117,491.343328 C825.204733,491.732254 824.860156,491.781225 824.269809,491.489104 C823.679367,491.197268 821.776713,490.581673 819.521328,488.59527 C817.765829,487.049133 816.580819,485.139928 816.236243,484.556065 C815.891858,483.972486 816.199598,483.656969 816.495251,483.366175 C816.760878,483.104838 817.085789,482.685222 817.381058,482.344699 C817.676232,482.004365 817.774655,481.760931 817.971501,481.372099 C818.168347,480.982889 818.07002,480.642365 817.922289,480.350623 C817.774655,480.058787 816.59377,477.188917 816.10175,476.021286 C815.622298,474.884535 815.135554,475.038552 814.773039,475.02046 C814.429134,475.003505 814.034962,475 813.641366,475 C813.247769,475 812.607923,475.145966 812.066788,475.729544 C811.525557,476.313312 810,477.723999 810,480.593584 C810,483.463548 812.115904,486.236044 812.411173,486.625065 C812.706346,487.01437 816.574968,492.90339 822.498386,495.428947 C823.907198,496.029765 825.007119,496.388475 825.864628,496.657105 C827.279195,497.10097 828.566465,497.038264 829.583887,496.888131 C830.718439,496.720758 833.077523,495.477729 833.569542,494.115919 C834.061657,492.753825 834.061657,491.586289 833.913927,491.343233 C833.766388,491.100084 833.372696,490.954118 832.782253,490.662186 Z" id="phone"></path>
            </g>
        </g>
    </g>
</svg>