<svg xmlns="http://www.w3.org/2000/svg" width="179" height="53" viewBox="0 0 179 53">
    <g fill="#008999" fill-rule="evenodd">
        <path d="M64.27 42.647c0 .707-.246 1.255-.705 1.661-.477.406-1.13.636-1.977.689v1.608h-.812v-1.608c-.847-.053-1.517-.283-1.976-.689-.476-.389-.706-.954-.706-1.66 0-.707.23-1.255.706-1.644.459-.406 1.112-.618 1.976-.671v-1.784h.812v1.784c.847.053 1.5.265 1.977.671.459.389.706.937.706 1.643zm-5.364 0c0 .477.159.866.476 1.149.318.265.777.424 1.394.459v-3.198c-.617.053-1.094.195-1.394.477-.317.265-.476.636-.476 1.113zm2.682 1.626c1.236-.106 1.87-.636 1.87-1.626 0-.477-.158-.865-.476-1.13-.317-.265-.776-.407-1.394-.46v3.216zm5.418-3.94c.635 0 1.112.159 1.447.46.335.317.512.777.512 1.395v2.738h-.794v-.6c-.124.212-.318.37-.583.494-.247.106-.547.16-.9.16-.512 0-.917-.124-1.217-.372-.318-.247-.46-.565-.46-.971 0-.389.142-.725.424-.954.3-.248.76-.371 1.394-.371h1.306v-.16c0-.353-.106-.635-.3-.83-.211-.176-.511-.282-.917-.282-.265 0-.53.053-.794.141a2.303 2.303 0 0 0-.653.353l-.336-.618c.23-.194.512-.336.83-.424a3.462 3.462 0 0 1 1.04-.159zm-.177 4.01c.3 0 .583-.07.812-.212.23-.141.388-.335.494-.6v-.636h-1.27c-.689 0-1.041.247-1.041.706 0 .23.088.407.264.548.177.124.424.194.741.194zm5.93-3.816c.423 0 .794.106 1.13.283.335.194.6.46.776.795.194.336.282.707.282 1.148 0 .442-.106.83-.3 1.166-.194.336-.476.601-.83.795-.352.195-.758.283-1.217.283-.776 0-1.376-.265-1.8-.795-.406-.53-.618-1.272-.618-2.244 0-.918.194-1.66.565-2.19.388-.53.97-.884 1.765-1.043l2.082-.477.106.76-1.906.424c-.6.124-1.041.353-1.323.654-.3.318-.46.777-.512 1.36.194-.283.459-.512.759-.671a2.263 2.263 0 0 1 1.04-.248zm-.141 3.781c.282 0 .547-.07.776-.194a1.32 1.32 0 0 0 .53-.548 1.65 1.65 0 0 0 .176-.795c0-.442-.124-.813-.406-1.095-.282-.265-.635-.407-1.076-.407-.442 0-.812.142-1.094.407-.265.282-.406.653-.406 1.095 0 .3.053.565.194.795.123.23.3.424.53.548.229.123.493.194.776.194zm5.911-3.975c.442 0 .847.106 1.183.3.353.195.635.46.83.813.193.353.3.742.3 1.201 0 .46-.107.866-.3 1.22a2.085 2.085 0 0 1-.83.83c-.336.194-.741.282-1.183.282-.317 0-.617-.053-.9-.194a1.858 1.858 0 0 1-.688-.548v2.368h-.812v-6.219h.777v.707c.194-.248.423-.442.706-.566.282-.123.582-.194.917-.194zm-.07 3.922c.3 0 .565-.07.794-.194a1.53 1.53 0 0 0 .547-.566c.141-.247.194-.53.194-.848 0-.3-.053-.583-.194-.83a1.53 1.53 0 0 0-.547-.565 1.651 1.651 0 0 0-.794-.195c-.283 0-.547.071-.777.195-.23.141-.406.335-.547.565-.123.247-.194.53-.194.83 0 .318.07.601.194.848.124.248.318.424.547.566.23.123.494.194.777.194zm3.565-3.869h.829v3.304l2.788-3.304h.741v4.54h-.83v-3.303l-2.77 3.303h-.758v-4.54zm7.729 2.615H88.8v1.925h-.812v-4.54h.812v1.908h.97l1.465-1.908h.883l-1.712 2.173 1.835 2.367h-.97l-1.518-1.925zm4.888-2.668c.635 0 1.112.159 1.447.46.336.317.512.777.512 1.395v2.738h-.794v-.6c-.124.212-.318.37-.582.494-.248.106-.548.16-.9.16-.512 0-.918-.124-1.218-.372-.318-.247-.459-.565-.459-.971 0-.389.141-.725.424-.954.3-.248.758-.371 1.394-.371h1.306v-.16c0-.353-.106-.635-.318-.83-.194-.176-.494-.282-.9-.282-.265 0-.53.053-.794.141a2.303 2.303 0 0 0-.653.353l-.335-.618c.229-.194.511-.336.829-.424a3.462 3.462 0 0 1 1.041-.159zm-.176 4.01c.3 0 .582-.07.811-.212.23-.141.389-.335.495-.6v-.636H94.5c-.706 0-1.041.247-1.041.706 0 .23.088.407.265.548.176.124.423.194.74.194zm10.553-.141v1.784h-.777v-1.06h-3.812v1.06h-.776v-1.784h.247c.282-.018.494-.212.6-.618.106-.389.176-.954.212-1.661l.07-1.537h3.53v3.816h.706zm-3.547-2.226a9.262 9.262 0 0 1-.142 1.413c-.07.389-.194.654-.388.813h2.559v-3.11h-1.976l-.053.884zm8.717.707c0 .053 0 .141-.017.247h-3.689c.053.406.23.724.53.972.3.23.67.353 1.13.353.529 0 .97-.177 1.305-.548l.459.53a1.887 1.887 0 0 1-.777.548c-.3.141-.653.194-1.023.194-.477 0-.9-.088-1.27-.3-.371-.194-.671-.46-.865-.83-.212-.354-.3-.742-.3-1.202 0-.441.088-.83.282-1.183.194-.354.476-.636.812-.83a2.4 2.4 0 0 1 1.182-.301c.424 0 .812.106 1.165.3.335.195.6.477.794.83.194.354.282.76.282 1.22zm-2.24-1.661c-.407 0-.724.124-.99.371-.264.23-.423.548-.476.936h2.912a1.44 1.44 0 0 0-.459-.936 1.402 1.402 0 0 0-.988-.371zm6.723.07h-1.66v3.834h-.829v-3.833h-1.658v-.707h4.147v.707zm2.629 3.887c-.459 0-.882-.106-1.235-.3a2.174 2.174 0 0 1-.865-.83c-.212-.354-.3-.742-.3-1.202 0-.441.088-.848.3-1.183.212-.354.494-.636.865-.83.353-.195.776-.301 1.235-.301.406 0 .776.088 1.094.247.335.177.582.407.759.725l-.635.406a1.416 1.416 0 0 0-.53-.495 1.537 1.537 0 0 0-.706-.159c-.3 0-.564.071-.794.195a1.449 1.449 0 0 0-.564.565c-.124.247-.195.53-.195.83 0 .336.071.601.195.848.14.248.317.442.564.566.23.141.494.194.794.194.265 0 .494-.053.706-.159.212-.106.388-.265.53-.495l.635.407a1.77 1.77 0 0 1-.759.724 2.433 2.433 0 0 1-1.094.247zm4.676-1.978h-.935v1.925h-.83v-4.54h.83v1.908h.953l1.482-1.908h.883l-1.73 2.173 1.853 2.367h-.97l-1.536-1.925zm3.371-2.615h.812v3.304l2.788-3.304h.759v4.54h-.83v-3.303l-2.77 3.303h-.759v-4.54zm8.788 4.54l-1.306-1.749-1.34 1.75h-.918l1.8-2.333-1.712-2.208h.917l1.253 1.625 1.253-1.625h.9l-1.711 2.208 1.8 2.332h-.936zm5.877-1.925h-.936v1.925h-.829v-4.54h.83v1.908h.952l1.483-1.908h.882l-1.73 2.173 1.854 2.367h-.97l-1.536-1.925zm5.77-2.668c.442 0 .847.106 1.183.3.353.195.635.46.83.813.193.353.3.742.3 1.201 0 .46-.107.866-.3 1.22a2.085 2.085 0 0 1-.83.83c-.336.194-.741.282-1.183.282-.317 0-.617-.053-.882-.194a1.781 1.781 0 0 1-.706-.548v2.368h-.812v-6.219h.777v.707c.194-.248.423-.442.706-.566.282-.123.582-.194.917-.194zm-.07 3.922c.3 0 .564-.07.794-.194a1.53 1.53 0 0 0 .547-.566c.141-.247.194-.53.194-.848 0-.3-.053-.583-.194-.83a1.53 1.53 0 0 0-.547-.565 1.686 1.686 0 0 0-1.57 0c-.23.141-.407.335-.548.565-.123.247-.194.53-.194.83 0 .318.07.601.194.848.141.248.318.424.547.566.23.123.494.194.777.194zm5.523.724c-.459 0-.864-.106-1.217-.3a2.022 2.022 0 0 1-.847-.83 2.262 2.262 0 0 1-.318-1.202 2.2 2.2 0 0 1 .318-1.183c.194-.354.476-.636.847-.83.353-.195.758-.301 1.217-.301.441 0 .847.106 1.2.3.37.195.636.477.847.83.212.336.3.743.3 1.184 0 .46-.088.848-.3 1.202-.211.353-.476.636-.847.83-.353.194-.759.3-1.2.3zm0-.724c.283 0 .547-.07.777-.194a1.53 1.53 0 0 0 .547-.566c.123-.247.194-.53.194-.848 0-.3-.07-.583-.194-.83a1.53 1.53 0 0 0-.547-.565 1.632 1.632 0 0 0-.777-.195c-.3 0-.564.071-.794.195a1.53 1.53 0 0 0-.547.565c-.141.247-.194.53-.194.83 0 .318.053.601.194.848.141.248.318.424.547.566.23.123.494.194.794.194zm6.636-1.696c.6.159.882.53.882 1.113 0 .406-.141.707-.441.936-.3.212-.741.318-1.341.318h-2.189v-4.54h2.1c.547 0 .97.088 1.27.3.3.195.46.495.46.866 0 .23-.07.442-.194.618-.142.177-.318.3-.547.389zm-2.277-.23h1.235c.3 0 .547-.053.706-.159a.605.605 0 0 0 .247-.512c0-.424-.317-.654-.953-.654h-1.235v1.325zm1.306 1.961c.353 0 .6-.053.776-.159.177-.106.265-.282.265-.512 0-.23-.088-.406-.247-.512-.159-.124-.406-.177-.741-.177h-1.359v1.36h1.306zm4.765-3.957c.635 0 1.111.159 1.447.46.335.317.512.777.512 1.395v2.738h-.795v-.6c-.123.212-.335.37-.582.494-.247.106-.547.16-.9.16-.512 0-.918-.124-1.235-.372a1.198 1.198 0 0 1-.46-.971 1.2 1.2 0 0 1 .442-.954c.3-.248.759-.371 1.394-.371h1.306v-.16c0-.353-.106-.635-.318-.83-.194-.176-.494-.282-.9-.282-.264 0-.529.053-.794.141a2.303 2.303 0 0 0-.653.353l-.335-.618c.23-.194.512-.336.83-.424.335-.106.67-.159 1.04-.159zm-.177 4.01c.3 0 .583-.07.812-.212.23-.141.388-.335.494-.6v-.636h-1.27c-.706 0-1.042.247-1.042.706 0 .23.089.407.265.548.177.124.424.194.741.194zm7.006-3.25h-1.676v3.833h-.812v-3.833h-1.677v-.707h4.165v.707zm2.594 3.886c-.459 0-.864-.106-1.217-.3a2.022 2.022 0 0 1-.847-.83 2.262 2.262 0 0 1-.318-1.202 2.2 2.2 0 0 1 .318-1.183c.194-.354.476-.636.847-.83.353-.195.758-.301 1.217-.301.441 0 .847.106 1.2.3.37.195.636.477.847.83.194.336.3.743.3 1.184 0 .46-.106.848-.3 1.202-.211.353-.476.636-.847.83-.353.194-.759.3-1.2.3zm0-.724c.283 0 .547-.07.777-.194a1.53 1.53 0 0 0 .547-.566c.123-.247.194-.53.194-.848 0-.3-.07-.583-.194-.83a1.53 1.53 0 0 0-.547-.565 1.632 1.632 0 0 0-.777-.195c-.3 0-.564.071-.794.195a1.53 1.53 0 0 0-.547.565c-.141.247-.194.53-.194.83 0 .318.053.601.194.848.141.248.318.424.547.566.23.123.494.194.794.194zm5.312-1.254h-.953v1.925h-.812v-4.54h.812v1.908h.97l1.483-1.908h.882l-1.73 2.173 1.836 2.367h-.953l-1.535-1.925zM69.282 6.024h1.077l6.37 18.462c.477 1.378.989 2.509 1.553 3.392.565.866 1.236 1.325 2.047 1.36v.866h-6.511v-.866h.44c.213 0 .318-.194.318-.6a1.23 1.23 0 0 0-.07-.407l-2.17-6.289h-7.854c-.847 2.35-1.27 4.099-1.27 5.247 0 .6.194 1.095.582 1.484.406.389.9.565 1.553.565h.953v.866h-8.082v-.866c1.34-.07 2.576-1.501 3.67-4.31l7.394-18.904zm-.635 5.247l-3.741 9.576h7.041l-3.3-9.576zm14.647-4.328h5.912l7.73 19.15 4.429-10.511c1.676-3.957 2.77-6.837 3.3-8.639h6.44v.866c-1.04.017-1.764.194-2.187.53-.406.318-.618.918-.618 1.802 0 .123 0 .247.018.406l1.394 14.451c.159 1.785.44 2.915.83 3.428.405.512 1.182.777 2.382.812v.866h-8.895v-.866c.9-.017 1.536-.194 1.924-.53.353-.353.547-1.007.547-1.978 0-.212 0-.407-.035-.636l-1.394-14.416c-2.083 3.692-3.547 6.572-4.43 8.639l-4.517 10.635h-.812l-8.47-21.076-.618 6.519c-.283 2.932-.424 5.264-.424 6.978 0 3.798.97 5.76 2.876 5.865v.866h-8.152v-.866c.829-.176 1.5-.724 1.994-1.607.494-.901 1.006-2.474 1.535-4.753.512-2.279.9-4.717 1.13-7.296l.458-4.823c.018-.23.018-.477.018-.742 0-.848-.159-1.431-.494-1.731-.336-.3-.97-.46-1.87-.477v-.866zm41.1-.919h1.059l6.388 18.462c.459 1.378.97 2.509 1.535 3.392.565.866 1.236 1.325 2.048 1.36v.866h-6.512v-.866h.44c.213 0 .319-.194.319-.6a1.23 1.23 0 0 0-.071-.407l-2.17-6.289h-7.854c-.847 2.35-1.27 4.099-1.27 5.247 0 .6.194 1.095.582 1.484.406.389.918.565 1.553.565h.953v.866h-8.082v-.866c1.34-.07 2.576-1.501 3.67-4.31l7.412-18.904zm-.653 5.247L120 20.847h7.041l-3.3-9.576zm12.953-4.328h8.788v.866c-1.076.017-1.8.23-2.17.618-.37.389-.565 1.13-.565 2.261v18.55h2.365c3.653 0 5.823-1.908 6.512-5.724h1.305l-1.553 7.438h-.811c-.018-.565-.283-.848-.777-.848h-13.094v-.866c1.059 0 1.782-.212 2.17-.618.371-.406.565-1.166.565-2.261v-15.67c0-1.167-.211-1.944-.617-2.297-.406-.371-1.112-.566-2.118-.583v-.866zm31.394-.777h.812v6.854h-1.253c0-1.89-.53-3.215-1.57-4.028-1.06-.795-2.612-1.183-4.695-1.183h-1.358c-.124 1.307-.195 2.49-.195 3.533 0 2.314.406 3.957 1.2 4.964.777.99 2.171 1.502 4.13 1.502h1.482v1.254l-6.617.142v7.155c0 1.855.917 2.826 2.735 2.88v.865h-8.806v-.866c1.076 0 1.8-.212 2.17-.618.371-.406.565-1.166.565-2.261V10.67c0-1.184-.194-1.944-.6-2.297-.423-.353-1.13-.548-2.135-.565v-.866h13.623c.089 0 .195-.07.3-.23a.997.997 0 0 0 .212-.547zm10.694 1.643c-1.076.017-1.8.23-2.17.618-.388.406-.565 1.148-.565 2.261v15.67c0 1.856.918 2.827 2.735 2.88v.866h-8.806v-.866c1.077 0 1.818-.212 2.189-.618.37-.406.547-1.166.547-2.261v-15.67c0-1.184-.194-1.944-.6-2.315-.424-.353-1.13-.548-2.136-.565v-.866h8.806v.866z"/>
        <g>
            <path d="M1.006 0h42.282c.283 0 .53.106.706.283.177.176.3.406.3.671v50.703a.92.92 0 0 1-.3.672 1.016 1.016 0 0 1-.706.282H1.006A.985.985 0 0 1 .3 52.33a.859.859 0 0 1-.3-.672V.954C0 .689.106.459.3.283A.985.985 0 0 1 1.006 0zm41.753 1.449H1.518V51.18h41.24V1.45z"/>
            <path d="M18.953 22.472a4.24 4.24 0 0 0 3.018 1.237 4.254 4.254 0 0 0 4.253-4.258 4.224 4.224 0 0 0-1.253-3.021 4.35 4.35 0 0 0-1.8-1.078.746.746 0 0 0-.706.177.748.748 0 0 0-.177.707 2.874 2.874 0 0 1-.706 2.826 2.828 2.828 0 0 1-2.823.707.713.713 0 0 0-.706.194c-.177.177-.247.442-.177.69a4.169 4.169 0 0 0 1.077 1.819zm3.635-2.403a4.4 4.4 0 0 0 1.236-2.773c.052.053.105.088.14.141.548.53.848 1.254.848 2.014 0 .76-.3 1.466-.847 2.014-.53.53-1.236.83-1.994.83-.76 0-1.483-.3-2.012-.83-.053-.053-.106-.106-.141-.159a4.301 4.301 0 0 0 2.77-1.237zM21.83 7.243c.194 0 .388-.07.511-.212a.669.669 0 0 0 .212-.494.68.68 0 0 0-.212-.513.678.678 0 0 0-.512-.212c-.176 0-.37.071-.494.212a.68.68 0 0 0-.211.513c0 .176.07.37.211.494a.667.667 0 0 0 .494.212zM12.335 14.116c.194 0 .37-.071.512-.212a.708.708 0 0 0 0-1.007.706.706 0 0 0-1.006 0 .708.708 0 0 0 0 1.007.667.667 0 0 0 .494.212zM33.176 13.886c.177 0 .371-.07.495-.212a.708.708 0 0 0 0-1.007.667.667 0 0 0-.495-.212.678.678 0 0 0-.511.212.708.708 0 0 0 0 1.007.678.678 0 0 0 .511.212zM6.724 5.989c.194 0 .388-.07.511-.212a.68.68 0 0 0 .212-.512.669.669 0 0 0-.212-.495.678.678 0 0 0-.511-.212c-.177 0-.371.07-.495.212a.669.669 0 0 0-.211.495c0 .194.07.388.211.512a.667.667 0 0 0 .495.212z"/>
            <rect width="1.359" height="20.17" x="34.8" y="18.091" rx=".68"/>
            <path d="M34.848 18.452l.327-.327a.449.449 0 0 1 .635 0l3.565 3.569a.449.449 0 0 1 0 .634l-.326.327a.449.449 0 0 1-.635 0l-3.566-3.569a.449.449 0 0 1 0-.634z"/>
            <path d="M36.125 18.452l-.326-.327a.449.449 0 0 0-.635 0l-3.566 3.569a.449.449 0 0 0 0 .634l.327.327a.449.449 0 0 0 .635 0l3.565-3.569a.449.449 0 0 0 0-.634zM34.848 23.324l.327-.327a.449.449 0 0 1 .635 0l3.565 3.57a.449.449 0 0 1 0 .634l-.326.327a.449.449 0 0 1-.635 0l-3.566-3.57a.449.449 0 0 1 0-.634z"/>
            <path d="M36.125 23.324l-.326-.327a.449.449 0 0 0-.635 0l-3.566 3.57a.449.449 0 0 0 0 .634l.327.327a.449.449 0 0 0 .635 0l3.565-3.57a.449.449 0 0 0 0-.634zM34.848 27.957l.327-.328a.449.449 0 0 1 .635 0l3.565 3.57a.449.449 0 0 1 0 .634l-.326.327a.449.449 0 0 1-.635 0l-3.566-3.57a.449.449 0 0 1 0-.633z"/>
            <path d="M36.125 27.957l-.326-.328a.449.449 0 0 0-.635 0l-3.566 3.57a.449.449 0 0 0 0 .634l.327.327a.449.449 0 0 0 .635 0l3.565-3.57a.449.449 0 0 0 0-.633zM12.434 34.955v-.463c0-.248.201-.449.449-.449h16.05c.248 0 .448.201.448.45v.462c0 .248-.2.449-.448.449h-16.05a.449.449 0 0 1-.449-.449z"/>
            <rect width="1.359" height="5.902" x="12.441" y="34.044" rx=".68"/>
            <rect width="1.359" height="6.847" x="28.024" y="34.044" rx=".68"/>
            <rect width="1.359" height="7.901" x="19.112" y="34.044" rx=".68"/>
            <path d="M20.425 35.447l.327-.328a.449.449 0 0 0 0-.634l-3.439-3.443a.449.449 0 0 0-.635 0l-.327.327a.449.449 0 0 0 0 .635l3.44 3.443a.449.449 0 0 0 .634 0z"/>
            <path d="M12.797 35.344l-.326-.327a.449.449 0 0 1 0-.634l3.439-3.443a.449.449 0 0 1 .635 0l.326.327a.449.449 0 0 1 0 .634l-3.439 3.443a.449.449 0 0 1-.635 0zM29.02 35.344l.327-.327a.449.449 0 0 0 0-.634l-3.44-3.443a.449.449 0 0 0-.634 0l-.327.327a.449.449 0 0 0 0 .634l3.44 3.443a.449.449 0 0 0 .634 0z"/>
            <path d="M15.577 31.816v-.463c0-.248.201-.449.449-.449h9.76c.248 0 .45.2.45.449v.463c0 .248-.202.449-.45.449h-9.76a.449.449 0 0 1-.449-.45zM32.03 51.87c-2.295-2.933-6.9-6.767-13.43-9.452-4.835-1.997-10.73-3.357-17.524-3.233L1.06 37.77c7.006-.123 13.076 1.272 18.088 3.34 6.777 2.79 11.594 6.801 13.994 9.893l-1.112.865z"/>
            <path d="M22.076 42.47c2.877-1.766 6.177-3.038 9.424-3.974 4.482-1.272 8.876-1.873 11.965-2.103l.106 1.396c-3.018.247-7.324.83-11.683 2.067-3.159.901-6.335 2.138-9.07 3.816l-.742-1.201z"/>
            <rect width="1.359" height="20.379" x="6.759" y="18.886" rx=".68"/>
            <path d="M6.806 19.25l.327-.327a.449.449 0 0 1 .635 0l3.565 3.57a.449.449 0 0 1 0 .634l-.327.327a.449.449 0 0 1-.635 0l-3.565-3.57a.449.449 0 0 1 0-.634z"/>
            <path d="M8.083 19.25l-.327-.327a.449.449 0 0 0-.635 0l-3.565 3.57a.449.449 0 0 0 0 .634l.327.327a.449.449 0 0 0 .635 0l3.565-3.57a.449.449 0 0 0 0-.634zM6.806 24.123l.327-.327a.449.449 0 0 1 .635 0l3.565 3.569a.449.449 0 0 1 0 .634l-.327.327a.449.449 0 0 1-.635 0l-3.565-3.569a.449.449 0 0 1 0-.634z"/>
            <path d="M8.083 24.123l-.327-.327a.449.449 0 0 0-.635 0l-3.565 3.569a.449.449 0 0 0 0 .634l.327.327a.449.449 0 0 0 .635 0l3.565-3.569a.449.449 0 0 0 0-.634zM6.806 28.755l.327-.327a.449.449 0 0 1 .635 0l3.565 3.57a.449.449 0 0 1 0 .634l-.327.327a.449.449 0 0 1-.635 0l-3.565-3.57a.449.449 0 0 1 0-.634z"/>
            <path d="M8.083 28.755l-.327-.327a.449.449 0 0 0-.635 0l-3.565 3.57a.449.449 0 0 0 0 .634l.327.327a.449.449 0 0 0 .635 0l3.565-3.57a.449.449 0 0 0 0-.634zM35.894 6.236a.75.75 0 0 0 .512-.212.708.708 0 0 0 .212-.512.708.708 0 0 0-.212-.512.75.75 0 0 0-.512-.212A.742.742 0 0 0 35.4 5a.708.708 0 0 0-.212.512c0 .194.07.371.212.512a.742.742 0 0 0 .494.212z"/>
        </g>
    </g>
</svg>
