<svg xmlns="http://www.w3.org/2000/svg" width="143" height="143" viewBox="0 0 143 143">
    <g fill="none" fill-rule="evenodd">
        <circle cx="71.5" cy="71.5" r="71.5" fill="#FFF0E1"/>
        <path fill="#008999" d="M71.326 114.793c.207.104.518.207.726.207.207 0 .518-.103.726-.207l10.163-5.266C97.77 101.78 107 86.703 107 69.973V42.606c0-.62-.415-1.24-1.037-1.446L72.57 29.077a1.774 1.774 0 0 0-1.037 0L38.037 41.16A1.554 1.554 0 0 0 37 42.606V69.87c0 16.627 9.23 31.808 24.06 39.553l10.266 5.37zm32.563-44.82c0 15.491-8.608 29.64-22.4 36.765l-7.882 4.131V32.692l30.282 11.05v26.231zm-63.674 0v-26.23l30.281-11.051v78.074l-7.881-4.131c-13.896-7.126-22.4-21.17-22.4-36.662z"/>
    </g>
</svg>
