<?xml version="1.0" encoding="UTF-8"?>
<svg width="143px" height="143px" viewBox="0 0 143 143" version="1.1" xmlns="http://www.w3.org/2000/svg" xmlns:xlink="http://www.w3.org/1999/xlink">
    <!-- Generator: Sketch 56.2 (81672) - https://sketch.com -->
    <title>care</title>
    <desc>Created with Sketch.</desc>
    <g id="Page-1" stroke="none" stroke-width="1" fill="none" fill-rule="evenodd">
        <g id="amalfi-design-23" transform="translate(-41.000000, -3303.000000)">
            <g id="6-причин" transform="translate(-120.000000, 3125.000000)">
                <g id="здоровье" transform="translate(0.000000, 178.000000)">
                    <g id="care" transform="translate(161.000000, 0.000000)">
                        <circle id="Oval" fill="#FFF0E1" cx="71.5" cy="71.5" r="71.5"></circle>
                        <path d="M110.984747,80.18125 C111.069942,81.1471653 110.796156,82.1105996 110.215693,82.8875 C110.209359,83.5725284 110.055834,84.2481976 109.765515,84.86875 C108.696342,87.38125 99.7615552,94.45625 90.3578332,100.6125 C89.877138,101.201538 89.2194097,101.620126 88.4820908,101.80625 C80.5351954,106.85625 72.575795,111 68.9368547,111 C61.8215385,111 32.9163477,96.29375 31.6658527,95.66875 C31.0731174,95.3433857 30.8465185,94.6059481 31.1543358,94.0040822 C31.4621531,93.4022164 32.1928571,93.1539926 32.8038031,93.44375 C40.9882926,97.63125 63.4972017,108.5 68.9431072,108.5 C71.6879436,108.5 77.54026,105.6 83.8802694,101.8 C82.0357893,101.46875 80.01624,100.89375 78.0217005,100.325 C76.4649271,99.8112455 74.8666996,99.4327577 73.2448098,99.19375 C68.0753746,99.0149204 62.9017263,99.3941991 57.8137021,100.325 C57.3709433,100.425475 56.9084881,100.278168 56.6055135,99.9401527 C56.3025389,99.6021371 56.2066504,99.1265242 56.3549997,98.697589 C56.503349,98.2686539 56.8726266,97.9537935 57.3197566,97.875 C62.6063939,96.8786728 67.9870608,96.4699375 73.3636068,96.65625 C75.1817312,96.8995478 76.9720321,97.3181659 78.7094728,97.90625 C81.25423,98.6375 85.6247098,99.88125 87.562977,99.4875 L88.5133532,98.8625 C89.2573697,97.8024806 89.430482,96.4438531 88.9760363,95.23125 C88.0819324,92.875 85.0119673,91 80.3288637,89.9375 C77.6899413,89.3445272 75.0107319,88.9476096 72.3131911,88.75 C70.6687902,88.59375 68.7930478,88.41875 66.2920579,88.0875 C65.397954,87.96875 64.4350729,87.41875 62.9719938,86.5875 C57.7065494,83.4665745 51.8943756,81.3772261 45.8464655,80.43125 C36.911679,78.9 33.1289318,80.55625 33.091417,80.55625 C32.4692306,80.8342411 31.738929,80.563033 31.4492364,79.9464025 C31.1595439,79.329772 31.4171492,78.5948133 32.0284963,78.29375 C32.2035656,78.20625 36.4302385,76.28125 46.2653813,77.96875 C52.6026347,78.9696497 58.6908189,81.1693528 64.2037313,84.45 C64.9585233,84.9412829 65.7685922,85.3419615 66.6171866,85.64375 C69.0806616,85.94375 70.9251417,86.11875 72.5445327,86.26875 C73.6074534,86.36875 74.5828394,86.4625 75.5832354,86.58125 C77.1154372,85.8921422 78.6079352,85.1180197 80.0537548,84.2625 C84.8431505,81.6 88.3757987,79.725 90.289056,79.725 C91.8334173,79.725 92.896338,80.1375 93.4653132,80.975 C93.5111778,81.0454474 93.5529306,81.1184859 93.5903627,81.19375 C95.2847833,80.1625 97.098001,79.0875 98.8987137,78.1875 C103.219174,76.0375 107.689693,77.04375 109.640465,78.24375 C110.359987,78.6516454 110.854708,79.3646816 110.984747,80.18125 Z M100.011654,80.43125 C97.8232881,81.51875 95.5598922,82.91875 93.5653528,84.1625 C92.1835558,85.0125 90.8830411,85.79375 89.7701006,86.41875 C88.8634918,86.90625 86.7251454,87.9125 84.9181802,88.75 C85.6625638,89.0475215 86.3854157,89.3962744 87.0815364,89.79375 C91.5207935,87.39375 93.9530062,85.8125 95.7349615,84.65 C97.6224798,83.317133 99.6680571,82.2233713 101.824872,81.39375 C104.769788,80.2625 106.970659,79.95 108.408728,80.4375 L108.327446,80.375 C106.889376,79.50625 103.394243,78.75 100.011654,80.43125 Z M81.25423,86.45 L79.753636,87.25 L80.8790815,87.54375 L81.3667745,87.6625 C82.7048041,87.05 87.2190909,84.98125 88.5758779,84.25 C89.4699818,83.74375 90.5516599,83.08125 91.7021153,82.375 L91.3582292,82.2375 C91.3554749,82.2582424 91.3554749,82.2792576 91.3582292,82.3 C91.3630876,82.3515368 91.3851041,82.3999538 91.4207539,82.4375 C91.0687318,82.2696544 90.6764272,82.2046573 90.289056,82.25 C88.8759967,82.25 84.1303684,84.86875 81.25423,86.45 Z M107.470857,83.88125 L107.483362,83.88125 C107.652432,83.5733672 107.736587,83.2260925 107.727208,82.875 L107.727208,82.8375 C107.570896,82.7 106.232867,82.38125 102.725228,83.725 C100.731413,84.4912423 98.8410618,85.5032299 97.098001,86.7375 C95.4223378,87.83125 93.1776993,89.2875 89.2949125,91.425 C90.1785613,92.2328816 90.8669942,93.2309279 91.3082094,94.34375 C91.5982386,95.1056077 91.7383583,95.9162825 91.7208727,96.73125 C99.6552632,91.38125 106.658035,85.75625 107.470857,83.88125 Z M31.0155954,61.81875 C30.9299551,60.8585845 31.1990887,59.9003146 31.7721448,59.125 C31.7805973,58.4348238 31.9384409,57.7546591 32.2348279,57.13125 C33.3040011,54.61875 42.2387875,47.5375 51.648762,41.38125 C52.1222183,40.8000956 52.7680931,40.3842731 53.4932421,40.19375 C61.4588949,35.14375 69.4182953,31 73.0572356,31 C80.1788043,31 109.102753,45.7 110.33449,46.33125 C110.927225,46.6566143 111.153824,47.3940519 110.846007,47.9959178 C110.53819,48.5977836 109.807486,48.8460074 109.19654,48.55625 C101.01205,44.36875 78.5031411,33.5 73.0572356,33.5 C70.3123992,33.5 64.4600828,36.39375 58.1200734,40.2 C59.9645535,40.53125 61.9841028,41.10625 63.9786422,41.675 C65.5354157,42.1887545 67.1336432,42.5672423 68.755533,42.80625 C73.925018,42.9876738 79.0989459,42.6083746 84.1866406,41.675 C84.6293994,41.5745247 85.0918547,41.7218317 85.3948293,42.0598473 C85.6978039,42.3978629 85.7936924,42.8734758 85.6453431,43.302411 C85.4969938,43.7313461 85.1277162,44.0462065 84.6805861,44.125 C79.3959095,45.1202085 74.0174382,45.5289363 68.6429884,45.34375 C66.8248641,45.1004522 65.0345632,44.6818341 63.2971225,44.09375 C60.7523653,43.3625 56.3818854,42.11875 54.4436182,42.5125 L53.4932421,43.1375 C52.7471266,44.1964331 52.5716656,45.5551334 53.0243065,46.76875 C53.9184104,49.125 56.9883755,51 61.6714791,52.09375 C64.3104015,52.6867228 66.9896109,53.0836404 69.6871517,53.28125 C71.3315526,53.4375 73.207295,53.6125 75.7082849,53.94375 C76.6023888,54.0625 77.5652699,54.6125 79.028349,55.44375 C84.2937934,58.5646755 90.1059672,60.6540239 96.1538773,61.6 C105.088664,63.13125 108.871411,61.475 108.908926,61.475 C109.531112,61.1970089 110.261414,61.468217 110.551106,62.0848475 C110.840799,62.701478 110.583194,63.4364367 109.971847,63.7375 C109.853049,63.79375 107.75847,64.75 103.169154,64.75 C100.674492,64.7129554 98.1874866,64.4641442 95.7349615,64.00625 C89.3998661,63.0150048 83.311805,60.8259521 77.7966114,57.55625 C77.0418195,57.0649671 76.2317506,56.6642885 75.3831562,56.3625 C72.9196811,56.0625 71.0752011,55.8875 69.4558101,55.7375 C68.3928894,55.6375 67.4175034,55.54375 66.4171074,55.425 C64.8849056,56.1141078 63.3924076,56.8882303 61.946588,57.74375 C57.1571923,60.40625 53.6245441,62.28125 51.7112868,62.28125 C50.1669255,62.28125 49.1040048,61.86875 48.5350296,61.03125 C48.4891886,60.9607882 48.4474366,60.8877511 48.4099801,60.8125 C46.7155595,61.84375 44.9023418,62.91875 43.1016291,63.81875 C41.4243638,64.6482015 39.577026,65.076152 37.7057433,65.06875 C35.8397623,65.1048653 33.9967939,64.6523856 32.3598774,63.75625 C31.6403555,63.3483546 31.1456346,62.6353184 31.0155954,61.81875 Z M41.9886885,61.56875 C44.1770547,60.48125 46.4404506,59.08125 48.43499,57.8375 C49.8167869,56.9875 51.1173017,56.20625 52.2302422,55.58125 C53.136851,55.09375 55.2751974,54.0875 57.0821626,53.25 C56.337779,52.9524785 55.6149271,52.6037256 54.9188063,52.20625 C50.4795493,54.60625 48.0473366,56.1875 46.2653813,57.35 C44.377863,58.682867 42.3322857,59.7766287 40.1754709,60.60625 C38.5654789,61.2944143 36.8469799,61.6942514 35.0984614,61.7875 C34.5918027,61.7956597 34.0871629,61.7217877 33.6041199,61.56875 L33.6728971,61.625 C35.1109663,62.49375 38.6060997,63.25 41.9886885,61.56875 Z M60.7461128,55.55 L62.2467067,54.75 L61.1212613,54.45625 L60.6335683,54.3375 C59.2955387,54.95 54.7812519,57.01875 53.4244649,57.75 C52.530361,58.25625 51.4486828,58.9125 50.2982275,59.625 L50.6421136,59.7625 C50.6448679,59.7417576 50.6448679,59.7207424 50.6421136,59.7 C50.6372552,59.6484632 50.6152387,59.6000462 50.5795889,59.5625 C50.931611,59.7303456 51.3239156,59.7953427 51.7112868,59.75 C53.1243461,59.75 57.8699744,57.13125 60.7461128,55.55 Z M34.5169812,58.11875 C34.3435565,58.4254205 34.2550669,58.7727668 34.2606298,59.125 L34.2606298,59.1625 C34.4169416,59.3 35.7549712,59.61875 39.2626096,58.275 C41.2564245,57.5087577 43.146776,56.4967701 44.8898368,55.2625 C46.5655001,54.16875 48.8101385,52.7125 52.6929253,50.575 C51.8092765,49.7671184 51.1208436,48.7690721 50.6796284,47.65625 C50.3895992,46.8943923 50.2494795,46.0837175 50.2669651,45.26875 C42.3325747,50.61875 35.3298029,56.24375 34.5169812,58.11875 Z" fill="#008999"></path>
                    </g>
                </g>
            </g>
        </g>
    </g>
</svg>