<?xml version="1.0" encoding="UTF-8"?>
<svg width="143px" height="143px" viewBox="0 0 143 143" version="1.1" xmlns="http://www.w3.org/2000/svg" xmlns:xlink="http://www.w3.org/1999/xlink">
    <!-- Generator: Sketch 56.2 (81672) - https://sketch.com -->
    <title>leaf</title>
    <desc>Created with Sketch.</desc>
    <g id="Page-1" stroke="none" stroke-width="1" fill="none" fill-rule="evenodd">
        <g id="amalfi-design-23" transform="translate(-1268.000000, -3303.000000)">
            <g id="6-причин" transform="translate(-120.000000, 3125.000000)">
                <g id="натуральные" transform="translate(1388.000000, 178.000000)">
                    <g id="leaf">
                        <circle id="Oval-Copy-4" fill="#FFF0E1" cx="71.5" cy="71.5" r="71.5"></circle>
                        <path d="M111.885173,57.9027749 C112.063994,58.3504509 112.03434,58.8133478 111.793516,59.2905704 C100.712032,80.8989942 88.7157771,92.970129 75.8056502,95.5075564 C74.2771386,95.8352552 72.5707051,96 70.6827551,96 C62.5953923,96 54.344485,92.4033713 45.9273374,85.2110091 C45.5678991,84.9119616 45.3729038,84.5099485 45.3432501,84.0013886 C45.3135965,83.4946194 45.4483858,83.0612691 45.7467197,82.7040237 C46.0468507,82.3154409 46.4503202,82.1068239 46.9616213,82.0772773 C47.4702266,82.0181841 47.9042484,82.1515915 48.2636867,82.4801857 C57.6989434,90.5079112 66.6552484,93.6873059 75.1317033,92.0147885 C86.483665,89.7764087 97.3557764,78.8674406 107.749835,59.289675 C87.1432343,50.0084568 71.6568331,48.1273224 61.2933269,53.6489578 C53.955393,57.5285178 49.072423,65.2294398 46.6453155,76.7490379 C54.3130341,72.5408838 63.0743439,69.7652928 72.9292448,68.4222648 C73.4396473,68.3631716 73.8889452,68.4813581 74.2771386,68.7795103 C74.6671292,69.0785578 74.8917782,69.4662452 74.9510855,69.9443631 C75.0121901,70.4511323 74.8917782,70.8988083 74.5934444,71.2873911 C74.322967,71.6750785 73.933875,71.8989164 73.4243712,71.958905 C62.4920538,73.4505614 53.0567971,76.7338169 45.1186012,81.8077764 L45.1186012,81.852544 C41.5242177,84.1204704 38.1841368,86.8065263 35.0992572,89.9107114 C34.7694725,90.2384103 34.3516254,90.4174806 33.8412229,90.4479226 C33.3326177,90.4479226 32.8985959,90.2688522 32.5391575,89.9107114 C32.2093728,89.5821173 32.0305523,89.1639879 32,88.6572187 C32,88.1504495 32.1788206,87.7323202 32.5391575,87.4046214 C35.5943835,84.2708896 38.9191882,81.5543918 42.5135717,79.2560233 C44.9110255,64.871299 50.6009346,55.2758123 59.5868933,50.4713538 C71.327947,44.2629834 88.447097,46.3822815 110.941647,56.8283526 C111.449354,57.0674115 111.763863,57.4255523 111.885173,57.9027749 Z" fill="#008999"></path>
                    </g>
                </g>
            </g>
        </g>
    </g>
</svg>