<svg xmlns="http://www.w3.org/2000/svg" width="24" height="24" viewBox="0 0 24 24">
    <path fill="#008999" fill-rule="evenodd" d="M20.503 3.488A11.793 11.793 0 0 1 24 11.9c-.003 6.558-5.364 11.893-11.95 11.893h-.005c-2 0-3.965-.5-5.71-1.448L0 24l1.695-6.163A11.827 11.827 0 0 1 .1 11.892C.103 5.335 5.464 0 12.05 0a11.901 11.901 0 0 1 8.453 3.488zM12.05 21.785c5.475 0 9.93-4.434 9.932-9.885a9.801 9.801 0 0 0-2.906-6.993 9.888 9.888 0 0 0-7.022-2.898c-5.478 0-9.934 4.433-9.936 9.883 0 1.868.524 3.687 1.518 5.261l.237.374-1.004 3.648 3.76-.982.362.214a9.954 9.954 0 0 0 5.055 1.378h.004zm5.448-7.403c.299.149.498.223.572.347.075.124.075.72-.174 1.413-.249.694-1.441 1.328-2.015 1.413-.515.077-1.166.109-1.88-.118-.434-.136-.99-.32-1.703-.625-2.995-1.288-4.951-4.289-5.1-4.487-.15-.199-1.22-1.612-1.22-3.074 0-1.463.772-2.182 1.045-2.48A1.1 1.1 0 0 1 7.82 6.4c.2 0 .399.002.573.01.183.01.43-.069.672.51.248.595.845 2.058.92 2.207.075.148.125.322.025.52-.1.199-.15.323-.299.496-.149.174-.313.387-.447.52-.15.149-.306.31-.131.607.174.298.773 1.27 1.66 2.059 1.141 1.012 2.103 1.326 2.402 1.475.298.148.473.123.647-.075.174-.198.746-.867.945-1.165.2-.297.398-.248.672-.149.274.1 1.742.818 2.04.967z"/>
</svg>
