<svg xmlns="http://www.w3.org/2000/svg" width="120" height="120" viewBox="0 0 120 120">
    <g fill="none" fill-rule="nonzero">
        <circle cx="60" cy="60" r="60" fill="#FFC288"/>
        <g fill="#FFF" transform="translate(28.182 22.727)">
            <path d="M1.448 0h60.36c.394 0 .763.159 1.026.397.237.238.421.583.421.953v72.722c0 .398-.184.742-.42.98a1.547 1.547 0 0 1-1.027.397H1.448c-.395 0-.764-.159-1.027-.397a1.3 1.3 0 0 1-.421-.98V1.35C0 .98.158.635.421.397A1.547 1.547 0 0 1 1.448 0zM61.07 2.065H2.185v71.32H61.07V2.064z"/>
            <path d="M27.06 32.218a6.105 6.105 0 0 0 8.608 0 6.104 6.104 0 0 0 1.79-4.342 5.999 5.999 0 0 0-1.79-4.315c-.71-.714-1.605-1.27-2.58-1.535a1.001 1.001 0 0 0-1 .238c-.263.265-.368.662-.263 1.006.421 1.456.053 2.992-1 4.05a4.059 4.059 0 0 1-4.028 1.033.999.999 0 0 0-1 .265c-.263.264-.369.635-.263 1.006.29.98.816 1.853 1.527 2.594zm5.186-3.441a6.11 6.11 0 0 0 1.764-3.971c.079.052.158.132.237.185a4.078 4.078 0 0 1 1.184 2.885 4.078 4.078 0 0 1-1.184 2.886c-.79.768-1.79 1.191-2.87 1.191a3.986 3.986 0 0 1-2.869-1.19c-.079-.08-.158-.133-.21-.213 1.474-.08 2.869-.715 3.948-1.773zM31.193 10.378c.264 0 .527-.106.711-.292.21-.211.316-.476.316-.74a.948.948 0 0 0-.316-.716.938.938 0 0 0-.71-.317 1.037 1.037 0 0 0-1.027 1.032c0 .265.105.53.29.741.21.186.473.292.736.292zM17.637 20.252c.263 0 .526-.132.71-.318.185-.185.316-.45.316-.714 0-.292-.131-.556-.316-.742a1.014 1.014 0 0 0-.71-.29c-.264 0-.553.105-.737.29-.185.186-.29.45-.29.742 0 .264.105.53.29.714.184.186.473.318.737.318zM47.356 19.908c.29 0 .553-.106.737-.291.184-.186.29-.45.29-.741 0-.265-.106-.53-.29-.715a1.053 1.053 0 0 0-.737-.318 1.04 1.04 0 0 0-1 1.033c0 .29.105.555.29.74.183.186.447.292.71.292zM9.634 8.577c.264 0 .527-.106.711-.29.184-.213.29-.477.29-.742s-.106-.53-.29-.715a.938.938 0 0 0-.71-.318.953.953 0 0 0-.738.318c-.184.185-.29.45-.29.715 0 .265.106.53.29.741.185.185.448.291.737.291z"/>
            <rect width="1.94" height="28.928" x="49.699" y="25.917" rx=".97"/>
            <path d="M49.625 26.59l.74-.744a.449.449 0 0 1 .636 0l5.363 5.393a.449.449 0 0 1 0 .633l-.74.744a.449.449 0 0 1-.636 0l-5.363-5.394a.449.449 0 0 1 0-.633z"/>
            <path d="M51.724 26.59l-.74-.744a.449.449 0 0 0-.636 0l-5.362 5.393a.449.449 0 0 0 0 .633l.739.744a.449.449 0 0 0 .636 0l5.363-5.394a.449.449 0 0 0 0-.633zM49.625 33.578l.74-.744a.449.449 0 0 1 .636 0l5.363 5.393a.449.449 0 0 1 0 .633l-.74.744a.449.449 0 0 1-.636 0l-5.363-5.393a.449.449 0 0 1 0-.633z"/>
            <path d="M51.724 33.578l-.74-.744a.449.449 0 0 0-.636 0l-5.362 5.393a.449.449 0 0 0 0 .633l.739.744a.449.449 0 0 0 .636 0l5.363-5.393a.449.449 0 0 0 0-.633zM49.625 40.222l.74-.744a.449.449 0 0 1 .636 0l5.363 5.394a.449.449 0 0 1 0 .632l-.74.744a.449.449 0 0 1-.636 0l-5.363-5.393a.449.449 0 0 1 0-.633z"/>
            <path d="M51.724 40.222l-.74-.744a.449.449 0 0 0-.636 0l-5.362 5.394a.449.449 0 0 0 0 .632l.739.744a.449.449 0 0 0 .636 0l5.363-5.393a.449.449 0 0 0 0-.633zM17.764 50.315v-1.053c0-.248.2-.45.448-.45H41.51c.248 0 .448.202.448.45v1.053c0 .248-.2.45-.448.45H18.212a.449.449 0 0 1-.448-.45z"/>
            <rect width="1.94" height="8.465" x="17.768" y="48.817" rx=".97"/>
            <rect width="1.94" height="9.82" x="40.012" y="48.817" rx=".97"/>
            <rect width="1.94" height="11.331" x="27.297" y="48.817" rx=".97"/>
            <path d="M29.037 50.96l.74-.744a.449.449 0 0 0 0-.633l-5.183-5.212a.449.449 0 0 0-.636 0l-.74.744a.449.449 0 0 0 0 .633l5.183 5.212a.449.449 0 0 0 .636 0z"/>
            <path d="M18.417 50.814l-.74-.743a.449.449 0 0 1 0-.633l5.183-5.212a.449.449 0 0 1 .637 0l.739.743a.449.449 0 0 1 0 .633l-5.183 5.212a.449.449 0 0 1-.636 0zM41.307 50.814l.74-.743a.449.449 0 0 0 0-.633l-5.183-5.212a.449.449 0 0 0-.637 0l-.739.743a.449.449 0 0 0 0 .633l5.183 5.212a.449.449 0 0 0 .636 0z"/>
            <path d="M22.25 45.814V44.76c0-.248.202-.449.45-.449h14.318c.247 0 .448.201.448.449v1.054c0 .248-.2.448-.448.448H22.7a.449.449 0 0 1-.45-.448zM45.698 74.417c-3.265-4.21-9.82-9.716-19.138-13.555-6.923-2.859-15.32-4.791-25.007-4.633l-.026-2.091c10.003-.185 18.69 1.8 25.823 4.765 9.687 3.998 16.558 9.769 20.006 14.216l-1.658 1.298z"/>
            <path d="M31.51 60.862c4.106-2.541 8.818-4.368 13.477-5.691 6.37-1.827 12.661-2.7 17.057-3.045l.185 2.118c-4.317.344-10.45 1.165-16.69 2.938-4.474 1.298-9.028 3.071-12.95 5.48l-1.08-1.8z"/>
            <rect width="1.94" height="29.227" x="9.661" y="27.082" rx=".97"/>
            <path d="M9.59 27.734l.74-.743a.449.449 0 0 1 .636 0l5.363 5.393a.449.449 0 0 1 0 .633l-.74.744a.449.449 0 0 1-.636 0l-5.362-5.394a.449.449 0 0 1 0-.633z"/>
            <path d="M11.69 27.734l-.74-.743a.449.449 0 0 0-.636 0L4.95 32.384a.449.449 0 0 0 0 .633l.74.744a.449.449 0 0 0 .636 0l5.362-5.394a.449.449 0 0 0 0-.633zM9.59 34.723l.74-.744a.449.449 0 0 1 .636 0l5.363 5.393a.449.449 0 0 1 0 .633l-.74.744a.449.449 0 0 1-.636 0l-5.362-5.393a.449.449 0 0 1 0-.633z"/>
            <path d="M11.69 34.723l-.74-.744a.449.449 0 0 0-.636 0L4.95 39.372a.449.449 0 0 0 0 .633l.74.744a.449.449 0 0 0 .636 0l5.362-5.393a.449.449 0 0 0 0-.633zM9.59 41.367l.74-.744a.449.449 0 0 1 .636 0l5.363 5.393a.449.449 0 0 1 0 .633l-.74.744a.449.449 0 0 1-.636 0L9.591 42a.449.449 0 0 1 0-.633z"/>
            <path d="M11.69 41.367l-.74-.744a.449.449 0 0 0-.636 0L4.95 46.016a.449.449 0 0 0 0 .633l.74.744a.449.449 0 0 0 .636 0L11.689 42a.449.449 0 0 0 0-.633zM51.278 8.922c.263 0 .527-.106.71-.292.185-.185.29-.45.29-.74a1.04 1.04 0 0 0-1-1.032c-.29-.001-.553.131-.737.316-.184.186-.29.45-.29.715 0 .291.106.556.29.741.184.186.448.292.737.292z"/>
        </g>
    </g>
</svg>
