<svg xmlns="http://www.w3.org/2000/svg" width="143" height="143" viewBox="0 0 143 143">
    <g fill="none" fill-rule="evenodd">
        <circle cx="71.5" cy="71.5" r="71.5" fill="#FFF0E1"/>
        <path fill="#008999" d="M82.774 83.989l9.081 17.13a1.506 1.506 0 0 1-1.762 2.15l-9.078-2.714-5.08 5.4a1.507 1.507 0 0 1-2.585-.793L71.5 93.724l-1.85 11.438a1.506 1.506 0 0 1-2.584.792l-5.081-5.4-9.078 2.714a1.507 1.507 0 0 1-1.762-2.148l9.064-17.099a11.62 11.62 0 1 1 22.533-.08c.01.016.022.03.032.048zm-15.61 17.674l1.49-9.216c-2.834-.71-5.299-2.46-6.903-4.903l-6.26 11.807 6.522-1.95a1.512 1.512 0 0 1 1.528.412l3.623 3.85zm4.301-11.87a8.617 8.617 0 0 0 8.608-8.608 8.607 8.607 0 0 0-8.608-8.607 8.607 8.607 0 1 0 0 17.214zm9.522 7.609l6.521 1.95-6.291-11.87a11.645 11.645 0 0 1-6.874 4.947l1.493 9.234 3.623-3.85a1.512 1.512 0 0 1 1.528-.411zm-9.522-22.73a6.52 6.52 0 0 1 6.513 6.513 1.506 1.506 0 0 1-3.013 0 3.504 3.504 0 0 0-3.5-3.5 1.506 1.506 0 1 1 0-3.013zM38 33.506c0-.832.674-1.506 1.506-1.506h63.988c.832 0 1.506.674 1.506 1.506v76.988c0 .832-.674 1.506-1.506 1.506H39.506A1.506 1.506 0 0 1 38 110.494V33.506zm3.013 1.507v73.974h60.974V35.013H41.013zm17.07 10.319a1.506 1.506 0 1 1 0-3.013h26.834a1.506 1.506 0 1 1 0 3.013H58.083zm36.741 6.276a1.506 1.506 0 1 1 0 3.013H48.176a1.506 1.506 0 1 1 0-3.013h46.648zm-9.907 12.3H58.083a1.506 1.506 0 1 1 0-3.012h26.834a1.506 1.506 0 1 1 0 3.013z"/>
    </g>
</svg>
